<svg width="0" height="0" class="hidden">
  <symbol viewBox="0 0 24 24" fill="none" xmlns="http://www.w3.org/2000/svg" id="uk">
    <clipPath id="a">
      <path d="m0 0h24v24h-24z"/>
    </clipPath>
    <g clip-path="url(#a)">
      <path d="m12 24c6.6274 0 12-5.3726 12-12 0-6.62742-5.3726-12-12-12-6.62742 0-12 5.37258-12 12 0 6.6274 5.37258 12 12 12z" fill="#f0f0f0"/>
      <g fill="#0052b4">
        <path d="m2.48056 4.69434c-.9426 1.22639-1.65337 2.6399-2.06723 4.17548h6.24272z"/>
        <path d="m23.5866 8.86977c-.4138-1.53553-1.1247-2.94904-2.0672-4.17543l-4.1754 4.17543z"/>
        <path d="m.41333 15.1309c.413906 1.5355 1.12467 2.949 2.06723 4.1754l4.17535-4.1754z"/>
        <path d="m19.3058 2.48086c-1.2264-.94261-2.6399-1.65338-4.1754-2.067286v6.242676z"/>
        <path d="m4.69409 21.5196c1.22639.9426 2.63991 1.6534 4.17544 2.0673v-6.2427z"/>
        <path d="m8.86948.413574c-1.53553.413906-2.94904 1.124676-4.17539 2.067236l4.17539 4.17539z"/>
        <path d="m15.1304 23.5869c1.5355-.4139 2.949-1.1247 4.1754-2.0673l-4.1754-4.1754z"/>
        <path d="m17.344 15.1309 4.1754 4.1754c.9425-1.2263 1.6534-2.6399 2.0672-4.1754z"/>
      </g>
      <path d="m23.8984 10.4348h-10.3331v-10.333222c-.5124-.066703-1.0348-.101578-1.5653-.101578-.5306 0-1.0529.034875-1.5652.101578v10.333122h-10.333222c-.066703.5124-.101578 1.0348-.101578 1.5653 0 .5306.034875 1.0529.101578 1.5652h10.333122v10.3332c.5124.0667 1.0347.1016 1.5653.1016.5305 0 1.0529-.0348 1.5652-.1016v-10.3331h10.3332c.0667-.5124.1016-1.0347.1016-1.5653 0-.5305-.0349-1.0529-.1016-1.5652z" fill="#d80027"/>
      <path d="m15.1304 15.1304 5.3548 5.3548c.2463-.2462.4812-.5035.7054-.7704l-4.5845-4.5844z" fill="#d80027"/>
      <path d="m8.86951 15.1304h-.0001l-5.35476 5.3547c.24619.2463.50358.4813.77039.7054l4.58447-4.5846z" fill="#d80027"/>
      <path d="m8.86951 8.8696v-.00009l-5.35481-5.35486c-.24628.24619-.48122.50358-.70537.77039l4.58451 4.58451h1.47567z" fill="#d80027"/>
      <path d="m15.1304 8.8698 5.3548-5.3549c-.2462-.24628-.5035-.48122-.7704-.70533l-4.5844 4.58452z" fill="#d80027"/>
    </g>
  </symbol>
  <symbol viewBox="0 0 12 12" fill="none" xmlns="http://www.w3.org/2000/svg" id="location">
    <path d="m7.5 10.5 3-9-9 3 3.75 2.25z" stroke="#e2beff" stroke-linecap="round" stroke-linejoin="round" stroke-width="1.4"/>
  </symbol>
  <symbol viewBox="0 0 8 13" fill="none" xmlns="http://www.w3.org/2000/svg" id="arrowLeft">
    <path d="m6.5 11.5-5-5 5-5" stroke="#494949" stroke-linecap="round" stroke-linejoin="round" stroke-width="1.3"/>
  </symbol>
  <symbol viewBox="0 0 8 13" fill="none" xmlns="http://www.w3.org/2000/svg" id="arrowRight">
    <path d="m1.5 1.5 5 5-5 5" stroke="#494949" stroke-linecap="round" stroke-linejoin="round" stroke-width="1.3"/>
  </symbol>
</svg>
