<svg fill="none" height="25" viewBox="0 0 84 25" width="84" xmlns="http://www.w3.org/2000/svg"><g fill="#101010"><path d="m13.2594 25c-2.6725 0-5.0137-.5019-7.02373-1.5056-1.98719-1.0037-3.52898-2.4393-4.62536-4.3067-1.07354-1.8674-1.61031-4.0383-1.61031-6.5126 0-2.4977.54819-4.70358 1.64457-6.61768 1.11922-1.93744 2.63817-3.43137 4.55683-4.48179 1.94151-1.05042 4.1114-1.57563 6.5098-1.57563 2.3755 0 4.5225.52521 6.4412 1.57563 1.9415 1.05042 3.4605 2.54435 4.5568 4.48179 1.1193 1.9141 1.6789 4.11998 1.6789 6.61768 0 1.6806-.3655 3.2913-1.0964 4.8319-.7309 1.5173-1.6788 2.7194-2.8438 3.6064h4.3856v3.8866zm-.5482-4.0266c2.5353 0 4.5454-.7236 6.0301-2.1709 1.5075-1.4472 2.2612-3.4897 2.2612-6.1274 0-1.7274-.3654-3.24466-1.0963-4.55185-.731-1.30719-1.7246-2.31092-2.9808-3.0112-1.2563-.70028-2.661-1.05043-4.2142-1.05043s-2.9694.35015-4.24851 1.05043c-1.25627.70028-2.24987 1.70401-2.98079 3.0112s-1.09638 2.82445-1.09638 4.55185c0 2.661.74234 4.7152 2.22703 6.1624 1.50752 1.4239 3.54035 2.1359 6.09865 2.1359z"/><path d="m33.9455 4.20168h-7.2292v-3.67647h18.8097v3.67647h-7.2292v20.79832h-4.3513z"/><path d="m49.6329.52521h4.3513v24.47479h-4.3513z"/><path d="m59.4685.52521h4.2485l8.0172 17.92719 8.0173-17.92719h4.2485v24.47479h-4.1114v-15.89636l-7.1265 15.89636h-2.0557l-7.1265-15.89636v15.89636h-4.1114z"/></g></svg>